PathFileType	4	(X/Y/Z)	D:\TRACE\v60_Jaco2_6-2-23\JustBodyDRS_Motion3_1-v60.trc
DataRate	CameraRate	NumFrames	NumMarkers	Units	OrigDataRate	OrigDataStartFrame	OrigNumFrames
100.00	100.00	      27	9	mm	100.00	2626	      7000
Frame#	Time	front left toe			Front right toe			aft left toe			aft right toe			Arm			FL body			FR body			AL Body			AR Body			
		X1	Y1	Z1	X2	Y2	Z2	X3	Y3	Z3	X4	Y4	Z4	X5	Y5	Z5	X6	Y6	Z6	X7	Y7	Z7	X8	Y8	Z8	X9	Y9	Z9	

2626	26.250	-177.90054	151.61307	-125.76016	206.02583	29.48152	-114.10516	-154.71643	-25.46270	516.07544	219.60867	97.47937	477.82101	20.82536	1213.99707	-95.41041	-69.07374	593.26605	-255.96980	89.34179	592.87775	-261.04202	-33.55680	507.87814	684.13898	121.42358	498.23749	677.66339	
2627	26.260	-181.52751	146.21977	-131.60181	205.77913	29.63120	-114.11100	-155.06638	-25.81264	515.76575	216.00417	92.05907	472.29468	20.63369	1214.13843	-96.87713	-69.63387	593.37103	-258.10675	88.53867	592.83630	-262.87384	-35.07301	507.89758	682.32483	119.80022	497.98108	675.78302	
2628	26.270	-184.85277	139.91306	-138.19861	205.73566	29.77907	-113.99204	-155.49011	-26.60741	515.93726	211.36713	85.33815	466.25055	20.76802	1214.07520	-98.10394	-70.27946	593.69324	-260.08389	87.93365	593.00647	-264.60132	-36.18672	507.63931	679.94739	118.46221	497.64545	673.87048	
2629	26.280	-187.85916	132.50374	-145.06056	205.73241	29.82687	-113.88589	-156.51595	-26.04859	515.89355	207.22775	77.59595	460.38632	20.32639	1214.41785	-99.29913	-70.70287	593.97815	-262.13953	87.44889	593.13666	-266.52020	-37.59591	506.99554	677.99274	116.97472	497.18448	671.96283	
2630	26.290	-190.72900	124.19247	-152.20355	205.57779	29.92325	-113.71245	-156.41765	-27.09519	516.05035	203.00899	68.75849	454.08548	19.82759	1214.71301	-100.51191	-71.37096	594.34253	-264.19409	87.11132	593.70251	-268.70688	-38.94462	506.31662	675.38226	115.52380	496.41574	670.13434	
2631	26.300	-194.46426	115.24692	-159.61304	205.47826	30.12402	-113.63431	-156.33768	-27.72283	515.74493	198.38976	58.42691	447.06808	18.93623	1215.00696	-101.81205	-71.70518	594.80737	-266.37909	86.38668	594.04626	-270.44534	-40.22522	505.68475	673.71814	114.34980	495.59628	667.73425	
2632	26.310	-197.92053	105.73750	-167.15727	205.26016	30.42688	-113.61243	-156.94632	-28.35012	515.64423	194.93996	46.82177	439.99771	18.08151	1215.18164	-103.34814	-72.23052	595.23383	-268.40836	86.16595	594.31537	-272.29102	-41.88115	505.01346	671.58044	112.44511	494.81927	665.94940	
2633	26.320	-200.90663	95.90618	-174.60558	204.91051	30.47486	-113.43294	-157.42154	-28.83193	515.61475	191.34682	35.55504	433.42770	17.31629	1215.10938	-104.66010	-72.71969	595.73138	-270.85434	86.01415	594.54425	-274.17398	-43.27621	503.84891	669.22809	111.26528	493.91394	663.74353	
2634	26.330	-202.86130	87.34879	-181.11426	204.84146	30.40156	-113.37321	-157.83832	-28.96487	515.69238	188.12895	26.61747	427.14584	16.89945	1215.30750	-105.75078	-73.20628	596.04291	-273.05215	85.82148	595.07770	-276.53058	-44.58006	503.25943	666.69952	109.49552	492.78018	661.61243	
2635	26.340	-204.27542	78.91283	-186.09270	204.51320	30.56752	-113.54235	-158.25882	-29.34762	515.28162	184.68405	17.57039	422.85083	16.83617	1215.60498	-107.07977	-73.71043	596.49207	-275.10220	84.73377	595.48785	-278.61920	-46.03848	502.18161	664.20612	108.03877	491.88556	659.28448	
2636	26.350	-204.86891	70.12003	-189.46530	204.29485	30.79054	-113.59579	-157.95720	-30.45481	515.24011	182.00105	8.24066	419.52209	17.25431	1215.91748	-108.23856	-74.11874	596.97345	-277.54251	84.39073	595.70630	-281.13361	-47.19278	501.53201	661.80872	105.42067	490.87750	657.06879	
2637	26.360	-205.46352	61.43991	-191.67145	204.06075	31.01968	-113.37737	-158.28308	-31.02509	515.17468	180.77132	-0.73447	418.00000	17.76078	1215.81519	-109.76553	-74.75243	597.37958	-279.99380	83.91206	595.88983	-283.43219	-49.03901	500.82880	659.43286	105.00966	490.22253	654.44897	
2638	26.370	-205.45172	52.76797	-192.14906	203.76625	31.24289	-113.46272	-158.47366	-31.28321	515.06665	180.64026	-9.15392	417.62579	18.19522	1215.83411	-111.59254	-75.30249	597.53973	-282.59369	83.10392	595.74030	-285.43964	-50.00877	500.21017	656.85333	102.50734	489.21423	652.10156	
2639	26.380	-205.75168	45.10649	-191.81342	203.36610	31.30470	-113.59856	-159.17442	-31.35294	514.99194	179.78032	-16.28850	417.46536	18.61820	1215.63330	-113.54112	-75.51392	597.58038	-284.86099	82.48460	595.79028	-287.93671	-51.19563	499.57367	654.07874	101.95770	488.69089	649.64435	
2640	26.390	-206.56024	45.04976	-194.43765	202.73813	31.45607	-113.53061	-159.49553	-31.76686	514.95587	180.01967	-21.84845	416.53482	19.79762	1215.58264	-115.74205	-76.09007	597.72937	-287.62613	82.19595	596.10461	-290.72302	-52.96968	499.04901	651.62927	100.39240	488.19208	647.09674	
2641	26.400	-206.98868	41.91369	-194.26431	202.44774	31.45037	-113.60257	-159.81281	-32.22767	514.85828	180.53705	-21.60559	414.66418	18.98910	1215.55969	-118.47021	-76.60604	598.30682	-290.25748	82.20030	596.24060	-293.22745	-54.00355	498.70847	648.46899	99.11376	487.66626	644.60303	
2642	26.410	-207.83827	43.45454	-194.94576	202.30032	31.80453	-113.69032	-160.00652	-32.34877	514.46985	180.62732	-23.21868	414.40997	18.70139	1215.82312	-120.95448	-76.79865	599.06531	-292.60422	81.52872	596.72260	-295.21414	-55.09105	499.42569	646.25861	97.57006	488.48370	642.24139	
2643	26.420	-207.82489	42.61576	-193.64658	202.24011	32.26184	-113.45139	-159.98709	-32.41964	514.04407	180.32965	-23.19663	414.59842	18.50594	1216.65808	-123.21880	-76.78961	599.46057	-295.32156	81.66066	597.01862	-297.49692	-56.66031	500.98929	644.06500	96.29275	489.99313	640.11914	
2644	26.430	-207.56941	42.91713	-194.17989	201.34720	35.69683	-113.74767	-160.21835	-29.47369	512.82440	179.82750	-24.14419	416.28842	18.26405	1217.75403	-125.73314	-76.88502	599.96033	-297.69031	81.49010	597.69525	-299.66537	-57.78868	501.72287	641.44415	94.50723	490.84766	638.02368	
2645	26.440	-207.55452	43.01571	-194.23640	197.47220	38.93763	-112.69751	-158.75755	-25.81423	514.49188	179.51941	-24.60474	414.90863	17.84567	1218.92273	-128.59976	-76.76126	601.38629	-300.05588	81.69032	599.01587	-302.06039	-58.76111	501.70413	639.08331	93.28676	490.94351	635.82019	
2646	26.450	-207.84995	43.18848	-194.26636	192.20029	47.04190	-112.60629	-156.50369	-18.39038	513.06677	179.52748	-24.87260	415.49426	17.53121	1219.62915	-131.11989	-76.91505	602.55554	-302.36838	81.80560	600.23163	-304.34518	-59.83547	501.17944	636.56580	92.66618	490.32004	633.13202	
2647	26.460	-208.15561	43.05930	-194.56866	190.72633	57.69953	-113.48754	-154.86931	-8.58479	510.04510	179.40169	-25.03587	415.13538	16.53287	1220.18958	-132.49155	-77.44423	603.92310	-304.96494	81.16667	601.55585	-306.98782	-60.70016	500.80911	633.92395	91.91764	490.01151	630.85986	
2648	26.470	-208.37181	43.29278	-194.22237	189.57549	70.32641	-118.04701	-155.99673	2.89850	504.92502	179.37418	-25.08287	415.37265	15.35205	1220.95740	-133.10036	-78.00037	604.74847	-307.29510	80.02244	602.64862	-308.83194	-61.12513	500.48544	631.77661	90.90488	489.67435	628.20245	
2649	26.480	-208.63007	43.26844	-194.42239	191.02681	84.03596	-124.79417	-158.17580	15.40386	498.23627	179.21672	-25.50374	415.18893	14.49987	1221.85022	-133.47931	-78.64714	605.44910	-309.55215	79.95374	603.35333	-311.54800	-61.54229	499.64734	629.12939	90.13680	489.08792	625.61298	
2650	26.490	-208.75526	43.25277	-194.29001	193.01843	98.05987	-133.76965	-161.88828	27.62580	489.70602	179.10678	-25.82892	415.05682	13.82052	1222.50452	-133.92842	-79.43755	606.07477	-311.52341	78.71830	604.21051	-313.16699	-61.77080	498.74713	626.46350	89.52861	488.21466	622.96216	
2651	26.500	-208.94937	43.28452	-194.32858	194.56836	111.94088	-143.49721	-166.00729	40.70248	480.11032	178.92790	-25.99895	414.87808	12.82499	1222.89709	-134.84758	-80.41913	606.82141	-313.59427	78.22404	605.14960	-315.94785	-62.18458	497.69226	624.59888	90.45540	487.24109	620.65259	
2652	26.510	-209.21930	43.45102	-194.33910	195.60869	126.08060	-153.74219	-169.09097	53.13038	470.03503	178.87157	-26.34260	414.64172	11.81631	1223.31396	-136.05795	-81.25268	607.77423	-315.59006	77.14202	606.22955	-318.25705	-61.98757	496.35095	621.80951	90.37186	486.24402	618.20844	
